<svg xmlns="http://www.w3.org/2000/svg" width="47" height="54" viewBox="0 0 47 54"><g><g><path fill="#616161" d="M14.912 45.267c-5.698-1.688-5.97-4.95-5.97-4.95V21.88c0-1.876 2-2 2-2l25.937.062c1.938 0 2 2 2 2v18.437c0 2.478-2.818 3.912-6.002 4.74l.065 5.781a3 3 0 1 1-6 0l-.007-5.11c-2.231.17-4.056.152-4.056.152s-1.247-.017-1.935-.051l-.002 5.01a3 3 0 0 1-6 0zm9.03-43.388c2.486 0 4.422.476 6.468 1.64.356.202 2.41-3.65 4.388-3.483.375 3.8-2.214 4.861-1.863 5.15 3.628 2.992 5.944 7.842 5.944 12.796H8.942c0-4.74 2.14-9.4 5.52-12.4.402-.356-2.33-3.644-1.37-5.531 1.7-.193 3.547 3.904 4.032 3.632 2.04-1.144 4.355-1.804 6.818-1.804zm-9 10.063a2 2 0 1 0 4 0 2 2 0 0 0-4 0zm14 0a2 2 0 1 0 4 0 2 2 0 0 0-4 0zm-25 8a3 3 0 0 1 3 3v14a3 3 0 1 1-6 0v-14a3 3 0 0 1 3-3zm40 0a3 3 0 0 1 3 3v14a3 3 0 1 1-6 0v-14a3 3 0 0 1 3-3z"/></g></g></svg>