<svg xmlns="http://www.w3.org/2000/svg" width="60" height="56" viewBox="0 0 60 56"><g><g><path fill="#616161" d="M44 0h10a6 6 0 0 1 6 6v10a6 6 0 0 1-6 6H44a6 6 0 0 1-6-6V6a6 6 0 0 1 6-6zm1.875 10.97a3.093 3.093 0 1 0 6.187 0 3.093 3.093 0 0 0-6.187 0zm-17 19.03c6.04 0 10.938 4.835 10.938 10.875s-4.897 10.938-10.938 10.938c-6.04 0-10.937-4.897-10.937-10.938 0-6.04 4.897-10.875 10.937-10.875zm-9 10.688a9.062 9.062 0 0 0 18.125 0 9.063 9.063 0 1 0-18.125 0zm9.063-4.75a5 5 0 1 1 0 10 5 5 0 1 1 0-10zM12.25 18h23.625c0 6.25 6.125 6 6.125 6l14-.062C56 26.147 54.21 28 52 28H31.875c2.25 0 2.162-2.503 2.162-2.503l.088-3.121c0-2.126-2.267-2.4-2.267-2.4l-7.733-.023c-2.25 0-2.175 1.885-2.175 1.885l.014 4.057C21.964 27.769 24 28 24 28H6a4 4 0 0 1-4-4v-2l8.073.06s2.202-1.875 2.177-4.06zM2 16h6a2 2 0 1 1 0 4H2a2 2 0 0 1 0-4zm24 6h4a2 2 0 0 1 2 2c0 1.105-.895 1.938-2 1.938h-4c-1.105 0-2-.833-2-1.938a2 2 0 0 1 2-2zm16.125 18.125s.25-6.874-6-10.125H54a2 2 0 0 1 2 2v22a2 2 0 0 1-2 2H4a2 2 0 0 1-2-2V32a2 2 0 0 1 2-2h18s-6.125 1.625-6.125 10.125S21.438 54 28.063 54c6.625 0 14.062-2.937 14.062-13.875z"/></g></g></svg>