<svg xmlns="http://www.w3.org/2000/svg" width="62" height="59" viewBox="0 0 62 59"><g><g><path fill="#616161" d="M39.99 47.006v5.906c0 2.656 3.01 3.563 3.843 4.396.834.834-.833 1.666-.833 1.666H18.938c-1.792.063-.584-2-.584-2S22 54.797 22 52.797v-5.802zM3 0h56a3 3 0 0 1 3 3v40a3 3 0 0 1-3 3H3a3 3 0 0 1-3-3V3a3 3 0 0 1 3-3zm1 8.016v23.938l.005 4.062h53.99L58 31.954V8.016l-.005-4.063H4.005zm26.988 30.61c.845.082 1.466-.788 1.417-1.626zm.794.157c-.162.05-.603.275-.78.244-.387-.07-.751-.384-1.239-.308-1.145.175-1.89 1.25-1.597 2.692.08.394.18.75.323 1.081.224.518.702 1.308 1.217 1.518.416.17.914-.174 1.303-.237.575-.092.846.358 1.368.273.605-.1 1.015-.817 1.26-1.297.085-.167.2-.368.236-.572-.424-.135-.755-.556-.888-.988-.228-.746.194-1.57.688-1.769l.014-.021c-.269-.431-.78-.715-1.49-.702l-.415.086z"/></g></g></svg>