<svg xmlns="http://www.w3.org/2000/svg" width="55" height="64" viewBox="0 0 55 64"><g><g><path fill="#616161" d="M30.436 9.91c5.43.497 8.168 2.29 11.97 4.434l2.97-2.969-1.454-1.328 1.89-2.062 5.063 4.187-1.937 1.937-1.188-.937-2.689 3.179c5.79 4.966 9.444 12.36 9.444 20.618 0 14.954-11.983 27.077-26.937 27.077C12.613 64.046.49 51.923.49 36.969c0-14.554 12.544-27.051 24.131-27.051V3.922h-1.997s-1.875.062-1.875-1.625c0 0-.25-2.313 2-2.313h9.688s2.125.126 2.125 2.063c0 0-.126 1.937-2.125 1.937h-2zm-17.9 12.297c.312.378 2.169 1.863 2.169 1.863l-1.577 2.13s-2.232-2.35-2.355-2.182c-2.351 3.227-4.12 7.773-4.317 12.03 1.735-.046 4.04-.07 4.04-.07l-.037 1.992s-4.012-.158-4.007-.046a20.835 20.835 0 0 0 4.228 11.784c.925-.604 2.63-1.846 2.63-1.846l1.501 1.622s-2.452 2.18-2.22 2.41a21.182 21.182 0 0 0 13.907 6.141c-.017-1.482.083-4.098.083-4.098l1.877.012s-.111 4.1.036 4.094a21.056 21.056 0 0 0 14.011-6.115c.337-.336-2.4-2.352-2.4-2.352l1.19-1.692s2.9 2.147 3.072 1.921a20.896 20.896 0 0 0 4.275-11.823c.008-.186-4.156.016-4.156.016l-.073-2.02s3.365.004 4.221-.053a21.007 21.007 0 0 0-4.379-11.82c-.153-.197-2.817 1.933-2.817 1.933l-1.436-1.743s1.883-1.737 2.558-2.184c-3.805-3.773-9.173-6.224-14.98-6.224-5.886 0-11.21 2.453-15.044 6.32zM30.5 39.016c0 1.708-1.385 2.969-3.094 2.969-1.708 0-2.968-1.26-2.968-2.97 0-2.937 2.062-3.093 2.062-3.093V18.985a1 1 0 1 1 2 0v16.874s2 .281 2 3.157z"/></g></g></svg>